Coordinates
version=1
nRows=9
nColumns=24
inDegrees=yes

Units are S.I. units (second, meters, Newtons, ...)
Angles are in degrees.

endheader
time	pelvis_tilt	pelvis_list	pelvis_rotation	pelvis_tx	pelvis_ty	pelvis_tz	hip_flexion_r	hip_adduction_r	hip_rotation_r	knee_angle_r	ankle_angle_r	subtalar_angle_r	mtp_angle_r	hip_flexion_l	hip_adduction_l	hip_rotation_l	knee_angle_l	ankle_angle_l	subtalar_angle_l	mtp_angle_l	lumbar_extension	lumbar_bending	lumbar_rotation
      1.08733333	     -2.50623701	    -10.98631641	     -8.80107137	     -0.07691801	      0.99081597	      0.29285753	    -12.99357837	     11.61752843	      1.71532036	     -5.47615030	      6.93766364	     -7.30022590	     -5.07918490	     25.49444144	    -14.96443282	    -15.45633107	      1.72912701	      2.65406496	     -0.01833905	     -1.67538347	     -9.94724352	     12.47836134	     12.84232734
      1.09150000	     -2.39441808	    -10.87972914	     -9.05440009	     -0.07120545	      0.99057484	      0.29317264	    -13.33320104	     11.35918202	      1.98674364	     -5.73960023	      6.98959602	     -7.24129538	     -4.86825985	     25.32419978	    -14.97505698	    -15.45220391	      1.28581647	      2.58058232	     -0.32994084	     -1.54198414	    -10.09089287	     12.22578397	     13.11342971
      1.09566667	     -2.27311454	    -10.75204595	     -9.32347324	     -0.06546479	      0.99041439	      0.29351211	    -13.66447973	     11.07080690	      2.27199744	     -6.02721126	      7.01493100	     -7.19457213	     -4.65194665	     25.13399354	    -14.97011167	    -15.48465895	      0.79859912	      2.46913041	     -0.67906104	     -1.40254408	    -10.24174468	     11.94411001	     13.40909801
      1.09983333	     -2.07349846	    -10.59995100	     -9.59245748	     -0.05967101	      0.99044164	      0.29388857	    -14.07263885	     10.73957983	      2.56039941	     -6.30654141	      6.96195594	     -7.17611311	     -4.22718204	     24.84479006	    -14.93632208	    -15.58512522	      0.28025204	      2.36898282	     -0.97192861	     -1.11708655	    -10.46726922	     11.59121268	     13.84406335
      1.10400000	     -1.99575814	    -10.47139192	     -9.87504609	     -0.05393500	      0.99030991	      0.29425678	    -14.31561821	     10.45529994	      2.85823689	     -6.66351699	      6.95605180	     -7.16263135	     -3.99097959	     24.70116011	    -14.93857684	    -15.62105940	     -0.27638386	      2.10795153	     -1.42076887	     -0.96368567	    -10.56626710	     11.31419865	     14.04073252
      1.10816667	     -1.90129729	    -10.33720579	    -10.14548892	     -0.04814944	      0.99025526	      0.29460555	    -14.57005539	     10.16174472	      3.15753824	     -7.02172671	      6.91570734	     -7.14739038	     -3.78352046	     24.53899684	    -14.92707176	    -15.66976621	     -0.86423310	      1.87225374	     -1.88241541	     -0.82996220	    -10.66715075	     11.02105695	     14.31162878
      1.11233333	     -1.76283592	    -10.18201028	    -10.42118329	     -0.04235753	      0.99033510	      0.29493736	    -14.83846748	      9.83169202	      3.42745255	     -7.42128968	      6.80868602	     -7.15452981	     -3.49844118	     24.30570670	    -14.88577866	    -15.76123529	     -1.42756743	      1.57092881	     -2.32391613	     -0.64509167	    -10.82166759	     10.67773854	     14.67274692
      1.11650000	     -1.62308987	    -10.02247462	    -10.71603157	     -0.03652056	      0.99048279	      0.29532951	    -15.10377126	      9.49320666	      3.73696569	     -7.81326510	      6.61009792	     -7.23962288	      2.10278327	     24.07266575	    -14.85486352	    -15.97892395	     -2.02773385	      1.24144406	     -2.70898125	      3.10463313	    -10.97472896	     10.33827506	     15.01812404
      1.12066667	     -1.54815430	     -9.87383132	    -10.92004530	     -0.03065101	      0.99052139	      0.29550316	    -15.28130575	      9.19712548	      3.95178607	     -8.23855855	      6.46694230	     -7.24904537	      2.12849820	     23.93519554	    -14.78824487	    -16.00125044	     -2.61963643	      0.84186999	     -3.24835730	      3.10079607	    -11.02543927	     10.04554101	     15.16837825
